<?xml version="1.0" encoding="utf-8" standalone="no"?>
<!DOCTYPE svg PUBLIC "-//W3C//DTD SVG 1.1//EN"
  "http://www.w3.org/Graphics/SVG/1.1/DTD/svg11.dtd">
<svg xmlns:xlink="http://www.w3.org/1999/xlink" width="216pt" height="216pt" viewBox="0 0 216 216" xmlns="http://www.w3.org/2000/svg" version="1.1">
 <metadata>
  <rdf:RDF xmlns:dc="http://purl.org/dc/elements/1.1/" xmlns:cc="http://creativecommons.org/ns#" xmlns:rdf="http://www.w3.org/1999/02/22-rdf-syntax-ns#">
   <cc:Work>
    <dc:type rdf:resource="http://purl.org/dc/dcmitype/StillImage"/>
    <dc:date>2026-06-12T16:27:49.961489</dc:date>
    <dc:format>image/svg+xml</dc:format>
    <dc:creator>
     <cc:Agent>
      <dc:title>Matplotlib v3.9.2, https://matplotlib.org/</dc:title>
     </cc:Agent>
    </dc:creator>
   </cc:Work>
  </rdf:RDF>
 </metadata>
 <defs>
  <style type="text/css">*{stroke-linejoin: round; stroke-linecap: butt}</style>
 </defs>
 <g id="figure_1">
  <g id="patch_1">
   <path d="M 0 216 
L 216 216 
L 216 0 
L 0 0 
L 0 216 
z
" style="fill: none"/>
  </g>
  <g id="patch_2">
   <path d="M 27.54 192.24 
L 193.86 192.24 
L 193.86 25.92 
L 27.54 25.92 
L 27.54 192.24 
z
" style="fill: none"/>
  </g>
  <g id="axes_1">
   <g id="line2d_1">
    <path d="M 123.293943 114.066968 
L 115.221517 128.681058 
" clip-path="url(#p7711db860e)" style="fill: none; stroke: #000000; stroke-width: 10.334882"/>
    <path d="M 123.293943 114.066968 
L 115.221517 128.681058 
" clip-path="url(#p7711db860e)" style="fill: none; stroke: #ffffff; stroke-width: 6.889921"/>
   </g>
   <g id="Path3DCollection_1">
    <defs>
     <path id="m3c58337447" d="M 0 7.119586 
C 1.888136 7.119586 3.699193 6.369421 5.034307 5.034307 
C 6.369421 3.699193 7.119586 1.888136 7.119586 0 
C 7.119586 -1.888136 6.369421 -3.699193 5.034307 -5.034307 
C 3.699193 -6.369421 1.888136 -7.119586 0 -7.119586 
C -1.888136 -7.119586 -3.699193 -6.369421 -5.034307 -5.034307 
C -6.369421 -3.699193 -7.119586 -1.888136 -7.119586 0 
C -7.119586 1.888136 -6.369421 3.699193 -5.034307 5.034307 
C -3.699193 6.369421 -1.888136 7.119586 0 7.119586 
z
" style="stroke: #000000; stroke-width: 1.377984"/>
    </defs>
    <g clip-path="url(#p7711db860e)">
     <use xlink:href="#m3c58337447" x="115.221517" y="128.681058" style="fill: #ffffff; stroke: #000000; stroke-width: 1.377984"/>
    </g>
   </g>
   <g id="line2d_2">
    <path d="M 123.293943 81.860265 
L 115.221517 64.267652 
" clip-path="url(#p7711db860e)" style="fill: none; stroke: #000000; stroke-width: 10.334882"/>
    <path d="M 123.293943 81.860265 
L 115.221517 64.267652 
" clip-path="url(#p7711db860e)" style="fill: none; stroke: #ffffff; stroke-width: 6.889921"/>
   </g>
   <g id="Path3DCollection_2">
    <g clip-path="url(#p7711db860e)">
     <use xlink:href="#m3c58337447" x="115.221517" y="64.267652" style="fill: #ffffff; stroke: #000000; stroke-width: 1.377984"/>
    </g>
   </g>
   <g id="line2d_3">
    <path d="M 151.252872 98.856414 
L 171.139374 98.25995 
" clip-path="url(#p7711db860e)" style="fill: none; stroke: #000000; stroke-width: 10.334882"/>
    <path d="M 151.252872 98.856414 
L 171.139374 98.25995 
" clip-path="url(#p7711db860e)" style="fill: none; stroke: #ffffff; stroke-width: 6.889921"/>
   </g>
   <g id="Path3DCollection_3">
    <g clip-path="url(#p7711db860e)">
     <use xlink:href="#m3c58337447" x="171.139374" y="98.25995" style="fill: #ffffff; stroke: #000000; stroke-width: 1.377984"/>
    </g>
   </g>
   <g id="line2d_4">
    <path d="M 131.36637 99.452877 
L 123.293943 114.066968 
" clip-path="url(#p7711db860e)" style="fill: none; stroke: #000000; stroke-width: 10.334882"/>
    <path d="M 131.36637 99.452877 
L 123.293943 114.066968 
" clip-path="url(#p7711db860e)" style="fill: none; stroke: #595959; stroke-width: 6.889921"/>
   </g>
   <g id="line2d_5">
    <path d="M 131.36637 99.452877 
L 123.293943 81.860265 
" clip-path="url(#p7711db860e)" style="fill: none; stroke: #000000; stroke-width: 10.334882"/>
    <path d="M 131.36637 99.452877 
L 123.293943 81.860265 
" clip-path="url(#p7711db860e)" style="fill: none; stroke: #595959; stroke-width: 6.889921"/>
   </g>
   <g id="line2d_6">
    <path d="M 131.36637 99.452877 
L 151.252872 98.856414 
" clip-path="url(#p7711db860e)" style="fill: none; stroke: #000000; stroke-width: 10.334882"/>
    <path d="M 131.36637 99.452877 
L 151.252872 98.856414 
" clip-path="url(#p7711db860e)" style="fill: none; stroke: #595959; stroke-width: 6.889921"/>
   </g>
   <g id="line2d_7">
    <path d="M 126.09797 104.211846 
L 131.36637 99.452877 
" clip-path="url(#p7711db860e)" style="fill: none; stroke: #000000; stroke-width: 10.334882"/>
    <path d="M 126.09797 104.211846 
L 131.36637 99.452877 
" clip-path="url(#p7711db860e)" style="fill: none; stroke: #595959; stroke-width: 6.889921"/>
   </g>
   <g id="Path3DCollection_4">
    <defs>
     <path id="m3ec730e789" d="M 0 17.454468 
C 4.628979 17.454468 9.06899 15.615355 12.342172 12.342172 
C 15.615355 9.06899 17.454468 4.628979 17.454468 0 
C 17.454468 -4.628979 15.615355 -9.06899 12.342172 -12.342172 
C 9.06899 -15.615355 4.628979 -17.454468 0 -17.454468 
C -4.628979 -17.454468 -9.06899 -15.615355 -12.342172 -12.342172 
C -15.615355 -9.06899 -17.454468 -4.628979 -17.454468 0 
C -17.454468 4.628979 -15.615355 9.06899 -12.342172 12.342172 
C -9.06899 15.615355 -4.628979 17.454468 0 17.454468 
z
" style="stroke: #000000; stroke-width: 1.377984"/>
    </defs>
    <g clip-path="url(#p7711db860e)">
     <use xlink:href="#m3ec730e789" x="131.36637" y="99.452877" style="fill: #595959; stroke: #000000; stroke-width: 1.377984"/>
    </g>
   </g>
   <g id="line2d_8">
    <path d="M 120.82957 108.970814 
L 126.09797 104.211846 
" clip-path="url(#p7711db860e)" style="fill: none; stroke: #000000; stroke-width: 10.334882"/>
    <path d="M 120.82957 108.970814 
L 126.09797 104.211846 
" clip-path="url(#p7711db860e)" style="fill: none; stroke: #595959; stroke-width: 6.889921"/>
   </g>
   <g id="line2d_9">
    <path d="M 94.64815 109.46703 
L 120.82957 108.970814 
" clip-path="url(#p7711db860e)" style="fill: none; stroke: #000000; stroke-width: 10.334882"/>
    <path d="M 94.64815 109.46703 
L 120.82957 108.970814 
" clip-path="url(#p7711db860e)" style="fill: none; stroke: #595959; stroke-width: 6.889921"/>
   </g>
   <g id="line2d_10">
    <path d="M 129.076251 126.604059 
L 120.82957 108.970814 
" clip-path="url(#p7711db860e)" style="fill: none; stroke: #000000; stroke-width: 10.334882"/>
    <path d="M 129.076251 126.604059 
L 120.82957 108.970814 
" clip-path="url(#p7711db860e)" style="fill: none; stroke: #595959; stroke-width: 6.889921"/>
   </g>
   <g id="line2d_11">
    <path d="M 129.076251 94.35911 
L 120.82957 108.970814 
" clip-path="url(#p7711db860e)" style="fill: none; stroke: #000000; stroke-width: 10.334882"/>
    <path d="M 129.076251 94.35911 
L 120.82957 108.970814 
" clip-path="url(#p7711db860e)" style="fill: none; stroke: #595959; stroke-width: 6.889921"/>
   </g>
   <g id="Path3DCollection_5">
    <g clip-path="url(#p7711db860e)">
     <use xlink:href="#m3ec730e789" x="120.82957" y="108.970814" style="fill: #595959; stroke: #000000; stroke-width: 1.377984"/>
    </g>
   </g>
   <g id="line2d_12">
    <path d="M 68.46673 109.963246 
L 94.64815 109.46703 
" clip-path="url(#p7711db860e)" style="fill: none; stroke: #000000; stroke-width: 10.334882"/>
    <path d="M 68.46673 109.963246 
L 94.64815 109.46703 
" clip-path="url(#p7711db860e)" style="fill: none; stroke: #ff0000; stroke-width: 6.889921"/>
   </g>
   <g id="line2d_13">
    <path d="M 64.908301 113.014629 
L 68.46673 109.963246 
" clip-path="url(#p7711db860e)" style="fill: none; stroke: #000000; stroke-width: 10.334882"/>
    <path d="M 64.908301 113.014629 
L 68.46673 109.963246 
" clip-path="url(#p7711db860e)" style="fill: none; stroke: #ff0000; stroke-width: 6.889921"/>
   </g>
   <g id="Path3DCollection_6">
    <defs>
     <path id="m2dd6f3a1bd" d="M 0 15.157827 
C 4.019903 15.157827 7.875702 13.560703 10.718202 10.718202 
C 13.560703 7.875702 15.157827 4.019903 15.157827 0 
C 15.157827 -4.019903 13.560703 -7.875702 10.718202 -10.718202 
C 7.875702 -13.560703 4.019903 -15.157827 0 -15.157827 
C -4.019903 -15.157827 -7.875702 -13.560703 -10.718202 -10.718202 
C -13.560703 -7.875702 -15.157827 -4.019903 -15.157827 0 
C -15.157827 4.019903 -13.560703 7.875702 -10.718202 10.718202 
C -7.875702 13.560703 -4.019903 15.157827 0 15.157827 
z
" style="stroke: #000000; stroke-width: 1.377984"/>
    </defs>
    <g clip-path="url(#p7711db860e)">
     <use xlink:href="#m2dd6f3a1bd" x="68.46673" y="109.963246" style="fill: #ff0000; stroke: #000000; stroke-width: 1.377984"/>
    </g>
   </g>
   <g id="line2d_14">
    <path d="M 137.322932 144.237304 
L 129.076251 126.604059 
" clip-path="url(#p7711db860e)" style="fill: none; stroke: #000000; stroke-width: 10.334882"/>
    <path d="M 137.322932 144.237304 
L 129.076251 126.604059 
" clip-path="url(#p7711db860e)" style="fill: none; stroke: #ffffff; stroke-width: 6.889921"/>
   </g>
   <g id="Path3DCollection_7">
    <g clip-path="url(#p7711db860e)">
     <use xlink:href="#m3c58337447" x="137.322932" y="144.237304" style="fill: #ffffff; stroke: #000000; stroke-width: 1.377984"/>
    </g>
   </g>
   <g id="line2d_15">
    <path d="M 137.322932 79.747406 
L 129.076251 94.35911 
" clip-path="url(#p7711db860e)" style="fill: none; stroke: #000000; stroke-width: 10.334882"/>
    <path d="M 137.322932 79.747406 
L 129.076251 94.35911 
" clip-path="url(#p7711db860e)" style="fill: none; stroke: #ffffff; stroke-width: 6.889921"/>
   </g>
   <g id="Path3DCollection_8">
    <g clip-path="url(#p7711db860e)">
     <use xlink:href="#m3c58337447" x="137.322932" y="79.747406" style="fill: #ffffff; stroke: #000000; stroke-width: 1.377984"/>
    </g>
   </g>
   <g id="line2d_16">
    <path d="M 61.349871 116.066013 
L 64.908301 113.014629 
" clip-path="url(#p7711db860e)" style="fill: none; stroke: #000000; stroke-width: 10.334882"/>
    <path d="M 61.349871 116.066013 
L 64.908301 113.014629 
" clip-path="url(#p7711db860e)" style="fill: none; stroke: #ffffff; stroke-width: 6.889921"/>
   </g>
   <g id="Path3DCollection_9">
    <g clip-path="url(#p7711db860e)">
     <use xlink:href="#m3c58337447" x="61.349871" y="116.066013" style="fill: #ffffff; stroke: #000000; stroke-width: 1.377984"/>
    </g>
   </g>
  </g>
 </g>
 <defs>
  <clipPath id="p7711db860e">
   <rect x="27.54" y="25.92" width="166.32" height="166.32"/>
  </clipPath>
 </defs>
</svg>
